<?xml version="1.0" encoding="utf-8"?>
<!-- Generator: Adobe Illustrator 19.0.0, SVG Export Plug-In . SVG Version: 6.00 Build 0)  -->
<svg version="1.1" id="Layer_1" xmlns="http://www.w3.org/2000/svg" xmlns:xlink="http://www.w3.org/1999/xlink" x="0px" y="0px"
	 viewBox="0 0 356 75" enable-background="new 0 0 356 75" xml:space="preserve">
<g id="XMLID_16_">
	<path id="XMLID_17_" d="M20.1,27.5c0-0.3-0.1-0.5-0.2-0.7c-0.1-0.2-0.2-0.4-0.3-0.7c-0.2-0.4-0.3-0.8-0.4-1.3
		c-0.1-0.5-0.2-1-0.2-1.6c0.1-0.3,0.1-0.6,0.2-0.7s0.2-0.3,0.3-0.4l0.2-0.9h0.7c0.3,0,0.5,0,0.8,0c0.3,0,0.5,0,0.8,0
		c1.2,0,2.5,0,3.8-0.1c1.3-0.1,2.6-0.2,4-0.3c1.5-0.2,3.1-0.3,4.8-0.4c0.2-0.4,0.3-0.6,0.3-0.7s0.1-0.2,0.2-0.3l0.5-0.3
		c0.7,0,1.3,0.1,1.6,0.3c0.3,0.2,0.5,0.4,0.7,0.6c0.8-0.1,1.7-0.2,2.6-0.3c0.9-0.1,1.8-0.2,2.7-0.4c1.3-0.2,2.6-0.3,4-0.5
		c1.3-0.2,2.6-0.2,3.9-0.2c0.6,0,1.1,0,1.6,0c0.5,0,1,0.1,1.4,0.1l0.6,0.4c0.1,0.2,0.3,0.4,0.5,0.6s0.4,0.4,0.7,0.6
		c0.5,0.4,1,0.9,1.4,1.5c0.5,0.6,0.6,1.4,0.5,2.6L57.6,25c-0.1,0.1-0.3,0.3-0.5,0.4L56.6,26h-0.5c-0.3,0-0.6,0-0.7,0.1
		c-0.2,0-0.4,0.1-0.6,0.2c-0.1,0.1-0.3,0.1-0.4,0.2c-0.2,0-0.3,0.1-0.5,0.2c-0.4,0-0.6,0-0.8,0s-0.4,0-0.7,0c-1,0-2,0.1-3.2,0.2
		c-1.1,0.1-2.2,0.3-3.3,0.4c-0.8,0.1-1.5,0.2-2.2,0.3c-0.7,0.1-1.4,0.2-2,0.2c-0.3,0.8-0.6,1.6-0.9,2.2c-0.3,0.7-0.5,1.3-0.8,2
		c-0.3,0.7-0.6,1.3-0.8,2c-0.3,0.7-0.5,1.4-0.7,2.2c-0.4,0.6-0.7,1.1-1,1.7c-0.3,0.5-0.5,1.1-0.6,1.8c-0.5,0.6-0.8,1.2-1,1.8
		c-0.2,0.7-0.4,1.2-0.6,1.7l-0.2,0.7c-0.2,0.2-0.4,0.4-0.4,0.5c0,0.1-0.1,0.3-0.3,0.4c-0.1,0.4-0.2,0.8-0.4,1.2
		c-0.1,0.2-0.1,0.3-0.2,0.5c-0.1,0.2-0.1,0.3,0,0.4c-0.1,0.4-0.2,0.6-0.3,0.8c0,0.2,0,0.4,0,0.6c0,0.2-0.1,0.4-0.1,0.6
		c-0.1,0.2-0.1,0.4-0.1,0.6c0,0.2,0,0.4,0,0.5c0.1,0.1,0.2,0.3,0.3,0.4c0.1,0.1,0.2,0.3,0.2,0.5c0.1,0.1,0.1,0.1,0.2,0.1
		c0.1,0,0.2,0.1,0.2,0.1c0.3,0.2,0.5,0.4,0.7,0.4l0.5,0.6c0.2,1.2,0,2.1-0.5,2.7c-0.6,0.7-1.6,1.1-2.9,1.1l-0.7,0
		c-0.2-0.2-0.4-0.4-0.4-0.4c-0.3-0.1-0.5-0.2-0.7-0.3c-0.2-0.1-0.4-0.2-0.5-0.5c-0.1-0.1-0.1-0.1-0.2-0.1c-0.1,0-0.2-0.1-0.2-0.1
		c-0.3-0.1-0.6-0.2-0.8-0.3L27.7,54c0-0.3,0-0.6,0-0.7c-0.3-0.4-0.5-0.7-0.6-1.2c-0.1-0.4-0.3-0.9-0.4-1.3c-0.1-0.4-0.2-0.7-0.3-1
		c-0.1-0.3-0.2-0.6-0.4-0.8c-0.1-2.3,0.1-4.2,0.6-5.7c0.5-1.5,1-3.1,1.6-4.5c0.3-0.8,0.6-1.6,0.9-2.4c0.3-0.8,0.6-1.6,0.8-2.5
		l0.5-0.5c0.2-0.2,0.4-0.3,0.4-0.3c0-0.4,0.1-0.8,0.2-1.2c0.2-0.4,0.3-0.8,0.5-1.2c0.1-0.3,0.3-0.5,0.4-0.8c0.1-0.3,0.2-0.5,0.2-0.7
		c-0.2,0-0.4,0-0.6,0c-0.2,0-0.4,0-0.6,0.1c-0.4,0.1-0.8,0.1-1.2,0.1c-0.3,0-0.5,0-0.6,0c-0.3,0.1-0.5,0.2-0.7,0.2
		c-0.2,0-0.5,0-0.7,0h-0.6h-0.6c-0.4,0-0.7,0-0.9,0.1c-0.5,0-0.7,0-0.9,0c-0.1,0-0.3,0-0.4,0H24h-0.6c-0.3,0-0.6,0-0.9-0.1
		c-0.3,0-0.7-0.2-1-0.4l-0.3-0.4c-0.2-0.4-0.4-0.6-0.5-0.6l-0.5-0.1V27.5z"/>
	<path id="XMLID_19_" d="M74.4,50.3c0.1,0.8,0,1.5-0.3,2.1c-0.3,0.6-0.6,1-1.1,1.4c-0.5,0.4-1,0.7-1.6,0.9c-0.6,0.2-1.2,0.4-1.7,0.6
		c-0.3-0.2-0.5-0.3-0.8-0.5s-0.5-0.3-0.9-0.4c-0.4-0.8-0.8-1.5-1.2-2.1c-0.4-0.6-0.6-1.3-0.5-2.1c0,0,0-0.2,0.1-0.5
		c0-0.3,0.1-0.7,0.2-1.1c0.1-0.4,0.1-0.8,0.2-1.1s0.1-0.5,0.1-0.6c-0.7,0.1-1.5,0.2-2.3,0.5c-0.8,0.3-1.6,0.6-2.4,0.9
		c-0.8,0.4-1.5,0.7-2.1,1.1c-0.7,0.4-1.2,0.7-1.6,0.9c0,0.1-0.1,0.3-0.2,0.7c-0.1,0.4-0.3,0.8-0.5,1.2c-0.2,0.4-0.4,0.8-0.6,1.1
		c-0.2,0.3-0.5,0.5-0.7,0.5c0,0.1,0.1,0.2,0.1,0.3c0.1,0.1,0.1,0.2,0,0.4c-0.5,0.1-0.9,0.3-1.2,0.5c-0.4,0.2-0.7,0.4-1.1,0.5
		s-0.8,0.2-1.3,0.2c-0.5,0-1-0.2-1.6-0.5c0-0.2-0.1-0.4-0.2-0.5c-0.2-0.1-0.3-0.3-0.5-0.4c-0.2-0.1-0.3-0.2-0.5-0.3
		c-0.1-0.1-0.2-0.2-0.2-0.2c-0.2,0-0.2-0.1-0.2-0.3c0-0.3,0.2-0.3,0.4-0.2c-0.4-0.5-0.6-0.9-0.7-1.2s-0.3-0.8-0.6-1.3
		c0.1-0.1,0.1-0.2,0.2-0.3c0-0.2,0.1-0.3,0.1-0.4c0-0.1,0.1-0.2,0.1-0.3c0.1-0.1,0.1,0,0.2,0c-0.1-0.3-0.1-0.5,0-0.7
		c0.1-0.2,0.1-0.4,0.2-0.5c0.1-0.2,0.1-0.3,0.1-0.5c0-0.2,0-0.3-0.1-0.5c0.5-0.7,0.9-1.5,1-2.3c0.2-0.8,0.3-1.6,0.3-2.3
		c0.2-0.2,0.4-0.6,0.6-1c0.2-0.4,0.3-0.9,0.4-1.3s0.1-0.9,0.1-1.3c0-0.4-0.1-0.7-0.2-1c0-0.2,0.2-0.2,0.5-0.1
		c0.2-1.1,0.3-2.3,0.4-3.6c0.1-1.4,0.2-2.6,0.4-3.9s0.5-2.3,1-3.2c0.5-0.9,1.2-1.5,2.2-1.8c0.2,0.7,0.4,1.3,0.8,1.8
		c0.3,0.5,0.7,1,1,1.5c0.4,0.5,0.7,1,1.1,1.4c0.4,0.5,0.7,1,1,1.7c0,0.6-0.1,1.3-0.2,2.1c-0.1,0.8-0.2,1.6-0.4,2.5
		c-0.1,0.8-0.3,1.7-0.4,2.4s-0.3,1.4-0.4,2c0,0.2,0.1,0.3,0.3,0.3c0.1,0,0.2,0.2,0.1,0.4c0.8-0.2,1.6-0.4,2.4-0.5
		c0.8-0.2,1.7-0.3,2.5-0.5c0.8-0.2,1.7-0.4,2.5-0.7c0.8-0.2,1.5-0.5,2.2-0.9c0.2-1.3,0.4-2.5,0.6-3.8c0.3-1.3,0.3-2.6,0.1-3.9
		c0.2-0.1,0.3-0.3,0.4-0.5s0.3-0.3,0.5-0.4c-0.2-0.6-0.2-1.3-0.2-2c0-0.7,0.2-1.3,0.4-2c0.2-0.6,0.5-1.1,0.9-1.6
		c0.4-0.4,0.9-0.7,1.5-0.9c0.4,0.5,0.7,1.1,0.9,1.7c0.3,0.6,0.5,1.2,0.8,1.8c0.3,0.6,0.6,1.2,0.9,1.7c0.3,0.5,0.7,1,1.2,1.4
		c0.1,0.9,0.2,1.9,0.2,2.9c0,1,0.1,2,0.1,3.1c-0.3,1.2-0.5,2.4-0.9,3.6c-0.3,1.2-0.5,2.4-0.7,3.7c-0.2,0.3-0.4,0.6-0.5,0.9
		c-0.1,0.3-0.3,0.7-0.4,1c-0.1,0.3-0.3,0.7-0.4,1c-0.2,0.3-0.4,0.6-0.6,0.8c0.1,0.4,0.2,0.8,0.1,1.1C74,49.4,74.1,49.9,74.4,50.3z"
		/>
	<path id="XMLID_21_" d="M105.7,27.6c0,0.2,0,0.4,0,0.5c0,0.1,0,0.2,0,0.3c0,0.1,0,0.2,0,0.3c0,0.1,0,0.3,0.1,0.5
		c-0.7,1.1-1.5,1.9-2.4,2.3c-0.9,0.4-1.9,0.7-2.9,0.9c-1,0.2-2.1,0.4-3.2,0.6c-1.1,0.2-2.2,0.6-3.2,1.3c-0.4-0.2-0.8-0.2-1.1,0
		c-0.3,0.2-0.8,0.2-1.5,0.1c-0.2,0.2-0.4,0.3-0.7,0.4c-0.3,0.1-0.6,0.2-0.9,0.3c0.1,0.3,0.2,0.6,0.2,0.9c0,0.3,0,0.6,0.1,0.8
		c1.1,0.1,2.4,0.1,3.8,0c1.4-0.1,2.7-0.2,4.1-0.2c0,0.2,0,0.3,0,0.3c-0.1,0-0.1,0.1,0,0.3c0.2,0.2,0.5,0.4,0.7,0.6
		c0.2,0.2,0.5,0.5,0.7,0.7c0.2,0.2,0.5,0.4,0.7,0.6s0.5,0.2,0.9,0.2c0.1,0.3,0.2,0.5,0.3,0.9c0,0.3,0,0.6-0.1,1
		c-0.5,0.4-1,0.7-1.6,1.1c-0.5,0.4-1.1,0.7-1.6,1c-0.6,0.3-1.2,0.5-1.8,0.7c-0.6,0.2-1.3,0.3-2.1,0.2c-0.2,0-0.3,0-0.4,0
		c-0.1,0-0.2,0-0.3-0.1c-0.3,0.2-0.6,0.2-1.1,0.1c-0.5-0.1-0.8,0-1.1,0.1c-0.4-0.2-0.8-0.2-1.3-0.2c-0.5,0-1,0-1.3-0.2
		c-0.5,0.7-1,1.4-1.4,2.2c-0.4,0.8-0.8,1.6-1.1,2.5c1.1,0.2,2,0.2,2.8,0.2c0.7,0,1.4-0.1,2.1-0.2c0.7-0.1,1.3-0.2,2-0.2
		c0.7-0.1,1.5-0.1,2.6-0.1c0.7-0.4,1.4-0.6,2.3-0.7c0.9-0.1,1.7-0.3,2.5-0.6c0.3,0.1,0.5,0.3,0.7,0.5s0.4,0.5,0.6,0.7
		c0.2,0.2,0.4,0.4,0.6,0.6c0.2,0.2,0.4,0.2,0.7,0.2c0.1,0.1,0.2,0.3,0.3,0.5c0,0.2,0.1,0.4,0.1,0.5c0,0.2,0.1,0.3,0.2,0.4
		c0.1,0.1,0.2,0.2,0.4,0.1c-0.5,1.1-1,1.9-1.7,2.5c-0.6,0.6-1.4,1-2.2,1.3c-0.8,0.3-1.7,0.5-2.7,0.7c-1,0.2-2.1,0.4-3.3,0.6
		c-0.3,0.1-0.5,0.1-0.7,0c-0.2-0.1-0.4-0.1-0.7-0.1c-0.7,0.2-1.6,0.3-2.7,0.4c-1,0.1-2.1,0.2-3.2,0.1c-1.1,0-2.1-0.2-3.1-0.4
		s-1.8-0.7-2.4-1.3c-0.3-0.2-0.4-0.5-0.5-0.8c-0.1-0.3-0.3-0.5-0.7-0.7c0-0.4-0.1-0.9-0.2-1.4c-0.1-0.5-0.2-1.1-0.3-1.6
		c-0.1-0.6-0.2-1.1-0.2-1.7c0-0.6,0-1.1,0.1-1.5c0.1-0.5,0.3-0.9,0.6-1.3c0.3-0.4,0.4-0.8,0.3-1.3c0.2,0,0.3-0.1,0.3-0.3
		c0-0.1,0.2-0.2,0.4-0.2c0.2-0.6,0.4-1.1,0.6-1.7c0.2-0.5,0.5-1,0.7-1.5s0.5-1,0.7-1.5c0.2-0.5,0.5-1.1,0.7-1.7
		c-0.5-0.4-0.8-0.9-1-1.4c-0.2-0.5-0.4-1-0.5-1.5c-0.1-0.5-0.2-1-0.2-1.6c-0.1-0.5-0.2-1.1-0.3-1.6c0.3-0.5,0.7-0.9,1.2-1.2
		c0.5-0.3,1-0.6,1.5-0.8c0.6-0.2,1.2-0.4,1.8-0.5c0.7-0.1,1.3-0.3,2.1-0.4c1.3-0.4,2.5-0.7,3.5-1c1-0.2,2-0.4,3-0.6
		c1-0.1,2-0.3,3.1-0.4c1.1-0.1,2.3-0.3,3.7-0.6c0.3,0.3,0.6,0.4,0.8,0.4c0.1-0.3,0.3-0.4,0.5-0.3c0.2,0.1,0.3,0,0.2-0.3
		c0.3,0.6,0.7,1,1.2,1.4C104.5,27,105.1,27.3,105.7,27.6z"/>
	<path id="XMLID_23_" d="M125.2,45.2c-1-0.6-1.7-1.3-2.2-2.3c-0.5-1-0.8-2-0.9-2.9c0.1-0.8,0.3-1.4,0.6-1.8c0.3-0.4,0.7-0.8,1.1-1.1
		c0.4-0.3,0.9-0.5,1.3-0.6c0.5-0.1,0.9-0.3,1.3-0.4l0.7,0.2c0.2,0.2,0.3,0.3,0.5,0.4c0.2,0.1,0.3,0.3,0.5,0.4
		c0.3-0.1,0.5-0.3,0.6-0.6c0.1-0.3,0.2-0.5,0.3-0.8c0.1-0.4,0.2-0.7,0.3-1.1c0.1-0.4,0.3-0.7,0.5-1.1c0-0.3,0-0.6,0-0.8
		c0.1-0.2,0.1-0.4,0.2-0.6c-0.2-0.2-0.3-0.3-0.4-0.3c-0.1,0-0.2-0.1-0.4-0.1c-0.1,0-0.2,0-0.3,0c-0.1,0-0.2,0-0.3-0.1
		c-0.5-0.4-0.8-0.7-1-0.9s-0.3-0.5-0.5-0.8c-0.2-0.3-0.3-0.5-0.4-0.7c-0.1-0.2-0.3-0.4-0.4-0.5l-0.6-0.4l0.3-0.6
		c0.1-0.1,0.1-0.2,0.1-0.3c0-0.1-0.1-0.3-0.2-0.5c-0.1-0.4-0.1-0.7,0-0.9l0.1-0.6c0.3-0.4,0.5-0.7,0.5-0.7l0.5-0.5
		c0.7-0.2,1.5-0.4,2.3-0.7s1.5-0.5,2.3-0.8c0.7-0.3,1.5-0.5,2.3-0.8c0.8-0.3,1.6-0.5,2.3-0.7c0.3-0.2,0.5-0.4,0.9-0.4
		c0.3,0,0.6-0.1,0.9-0.1c0.2,0,0.4,0,0.6,0c0.2,0,0.3-0.1,0.4-0.2c0.6-0.2,1.1-0.4,1.6-0.5c1-0.3,2.3-0.6,3.9-0.9
		c1.6-0.4,3.4-0.6,5.4-0.8l1,0c0.2,0,0.4,0,0.6,0c0.2,0,0.4,0,0.6,0c1.7,0,2.8,0.5,3.4,1.6c0.3,0.2,0.6,0.4,0.9,0.6
		c0.3,0.2,0.5,0.5,0.7,0.7c0.2,0.2,0.3,0.3,0.4,0.4c0.1,0.1,0.2,0.2,0.3,0.3l0.4,0.4c0.4,0.8,0.4,1.5,0.2,2.3
		c-0.2,0.4-0.4,0.6-0.6,0.7c-0.2,0.1-0.5,0.1-0.7,0.2l-0.6,0.3c-0.4,0-0.7,0-1,0c-0.2,0-0.4,0-0.7,0c-1,0-2.1,0.1-3.4,0.2
		c-1.3,0.1-2.6,0.3-3.9,0.5c-1.3,0.2-2.6,0.5-3.9,0.8c-1.3,0.3-2.4,0.6-3.3,1c-0.3,0.2-0.6,0.4-1,0.5c-0.1,0-0.2,0.1-0.4,0.2
		c0,0.3,0,0.5,0,0.8c0,0.2-0.1,0.5-0.1,0.7c0,0.2-0.1,0.3-0.1,0.5c0,0.2,0,0.4-0.1,0.6c-0.7,0.8-1,1.8-1,2.9l-0.2,0.5
		c-0.1,0.1-0.2,0.3-0.3,0.6c-0.1,0.2-0.1,0.5,0,0.8l0.2,0.6c0.7-0.1,1.3-0.1,1.9-0.2c0.6-0.1,1.3-0.2,2-0.3c0.9-0.2,1.8-0.3,2.8-0.4
		c0.9-0.1,1.9-0.2,2.9-0.2h1.9l-0.4,0.4l0.5,0l-0.3,0.8c0.2,0.1,0.4,0.2,0.5,0.2c0.1,0,0.2,0.1,0.3,0.2l0.3,0.5
		c0.2,0.1,0.3,0.3,0.4,0.5c0.1,0.2,0.2,0.5,0.2,0.9l-0.1,0.5l-2.3,2.9l-0.3,0.4l-0.5-0.1c-0.6,0-1.2,0-1.8,0.2
		c-0.3,0.1-0.5,0.1-0.8,0.2c-0.3,0.1-0.6,0.1-0.9,0.1c-0.8,0.1-1.4,0.2-2,0.3c-0.5,0.1-1,0.2-1.6,0.2c-0.7,0.1-1.4,0.3-2.1,0.4
		c-0.7,0.1-1.3,0.3-1.9,0.5c-0.4,0-0.6,0-0.6,0c-0.1,0-0.1,0-0.2,0c-0.3,0-0.7,0-1,0.1c-0.3,0.1-0.6,0.2-0.9,0.3
		c-0.2,0.2-0.3,0.3-0.4,0.5c-0.1,0.2-0.1,0.4-0.2,0.6c-0.1,0.2-0.2,0.4-0.3,0.7c-0.1,0.2-0.3,0.4-0.4,0.7l0,0.9
		c-0.3,0.1-0.4,0.1-0.4,0.1c0,0,0,0,0,0c0,0.3,0,0.5-0.1,0.7c-0.1,0.2-0.2,0.4-0.2,0.6c-0.1,0.1-0.1,0.2-0.1,0.3c0,0.1,0,0.2,0,0.3
		c0.3,0.6,0.4,1.3,0.2,2c-0.1,0.6-0.4,1.2-0.7,1.6c-0.4,0.5-0.8,0.8-1.3,1.1c-0.5,0.1-0.9,0-1.1,0s-0.5-0.2-0.8-0.3
		c-0.2-0.1-0.3-0.1-0.5-0.2c-0.2,0-0.3-0.1-0.5-0.1l-0.6-0.5c-0.1-0.2-0.2-0.4-0.3-0.6c-0.1-0.2-0.3-0.4-0.4-0.6
		c-0.2-0.2-0.3-0.5-0.5-0.7c-0.2-0.2-0.3-0.5-0.4-0.8c-0.2-1.1-0.3-2.1-0.1-2.9c0.1-0.8,0.3-1.5,0.6-2.3c0.1-0.3,0.1-0.5,0.2-0.7
		C125.1,45.7,125.1,45.4,125.2,45.2z"/>
	<path id="XMLID_25_" d="M159.7,50c-0.4,1.3-0.7,2.3-1,3c-0.3,0.7-0.7,1.4-1.2,2.1c-0.4-0.1-0.7,0-0.9,0.1c-0.2,0.2-0.3,0.3-0.5,0.4
		c-0.3,0.1-0.5,0.1-0.6,0c-0.1-0.1-0.2-0.1-0.3-0.2c-0.1-0.1-0.2-0.2-0.4-0.2s-0.4-0.1-0.7-0.1c-0.1-0.3-0.1-0.5-0.2-0.7
		c-0.1-0.2-0.3-0.3-0.7-0.2c0.1-0.3,0.1-0.5,0-0.7c0-0.2-0.1-0.3-0.1-0.5s-0.1-0.3-0.1-0.4c0-0.1,0-0.3,0-0.6
		c-0.2,0-0.3-0.1-0.4-0.3c-0.1-0.2-0.2-0.5-0.3-0.7c0.1-0.6,0.2-1.1,0.3-1.7c0.1-0.5,0.2-1,0.4-1.5c0.1-0.5,0.3-0.9,0.4-1.4
		c0.1-0.5,0-0.9-0.1-1.4c0.1,0.1,0.2,0.1,0.3-0.1c0.1-0.1,0.1-0.3,0.1-0.6c0-0.2,0-0.5,0-0.7s0-0.4,0-0.6c0.3-0.8,0.6-1.7,0.8-2.6
		c0.2-0.9,0.4-1.8,0.6-2.7c0.2-0.9,0.4-1.7,0.6-2.6c0.2-0.8,0.5-1.6,0.8-2.3c0.4-0.1,0.8,0,1.2,0.1s0.7,0.3,0.8,0.6
		c0.8-0.7,1.6-1.4,2.2-2.4c0.7-0.9,1.3-1.8,2-2.7s1.4-1.7,2.3-2.3s1.9-1.1,3.1-1.2c0.7,0.5,1.4,1,2.2,1.5c0.8,0.5,1.5,1.2,2,2
		c0.3,0.1,0.5,0.3,0.7,0.4c0.2,0.1,0.4,0.3,0.7,0.5v0.6c0.4,0.4,0.7,0.8,1,1.2c0.2,0.5,0.5,1,0.7,1.5s0.4,1.1,0.6,1.6s0.4,1,0.7,1.5
		c-0.1,0.2-0.1,0.3-0.1,0.4c0,0.1,0,0.2,0.1,0.4c0,0.1,0.1,0.3,0.1,0.4c0,0.1,0,0.3,0,0.5c-0.1,1.4-0.6,2.6-1.4,3.5s-1.8,1.6-3,2.2
		c-1.2,0.6-2.4,1-3.8,1.4c-1.3,0.4-2.5,0.8-3.6,1.3c0,0.1,0.1,0.2,0.2,0.2c0.1,0,0.2,0.1,0.1,0.2c0.8,0.5,1.4,0.9,1.9,1.2
		c0.5,0.3,0.9,0.5,1.3,0.7c0.4,0.2,0.8,0.4,1.3,0.5c0.5,0.1,1.1,0.3,2,0.5c0.8,0.2,1.5,0.4,2,0.5c0.5,0.1,0.9,0.2,1.3,0.3
		c0.4,0.1,0.8,0.1,1.2,0.2c0.4,0,1,0.1,1.7,0.2c0.3,0.3,0.5,0.6,0.8,1c0.2,0.4,0.3,0.8,0.4,1.2c0.1,0.4,0.1,0.8,0,1.2
		c0,0.4-0.1,0.7-0.3,0.9c0,0.1,0.1,0.1,0.2,0.1c0.1,0,0.2,0,0.4,0c-0.2,0.1-0.4,0.3-0.5,0.5c-0.1,0.2-0.3,0.4-0.4,0.6
		c-0.1,0.2-0.3,0.4-0.4,0.5c-0.2,0.1-0.4,0.2-0.7,0.3c-1,0.4-2.3,0.4-3.8,0.1c-1.5-0.3-3.5-1-5.8-1.9c-1.2-0.5-2.1-0.9-2.9-1.2
		s-1.4-0.7-1.9-1s-1-0.7-1.5-1.1S160.3,50.6,159.7,50z M166.7,33.3c-0.4,0.5-0.8,1-1.2,1.4c-0.4,0.4-0.9,0.9-1.3,1.3
		c-0.4,0.4-0.8,0.9-1.1,1.5c-0.3,0.5-0.6,1.2-0.7,1.9c1.1-0.1,2.3-0.4,3.6-1c1.2-0.5,2.4-1,3.5-1.4c-0.1-1-0.5-1.8-1-2.4
		C167.9,33.9,167.3,33.4,166.7,33.3z"/>
	<path id="XMLID_28_" d="M207.3,40.4c0,0.4,0,0.8,0.1,1.1c0.1,0.4,0.2,0.7,0.4,1s0.3,0.7,0.4,1c0.1,0.4,0.2,0.7,0.3,1.1
		c0.1,0.5,0.1,1,0,1.5c-0.1,0.5-0.2,1.1-0.3,1.6c-0.2,0.5-0.4,1-0.6,1.4c-0.3,0.4-0.6,0.7-0.9,0.9c-0.5,0.6-1,1-1.7,1.4
		c-0.7,0.3-1.3,0.7-1.8,1.2c-0.4,0.2-0.8,0.4-1.2,0.5s-0.9,0.2-1.3,0.3c-0.4,0.2-0.8,0.4-1.3,0.6c-0.5,0.2-1,0.4-1.5,0.6
		c-0.5,0.2-1,0.3-1.6,0.4c-0.5,0.1-1,0.1-1.4,0.1c-1,0.4-1.9,0.6-2.9,0.7c-0.9,0.1-2,0-3.2-0.2c-1.2,0.2-2.3,0.1-3.2-0.1
		c-1-0.3-1.9-0.7-2.6-1.2c-0.8-0.6-1.4-1.3-2-2.1c-0.6-0.8-1-1.6-1.4-2.5c-0.3-1.9-0.2-3.5,0.2-5.1s1-2.9,1.7-4.2
		c0.7-1.3,1.6-2.5,2.5-3.6c0.9-1.1,1.9-2.2,2.7-3.2c0.2,0.1,0.3,0.1,0.5,0c0.1-0.1,0.2-0.2,0.3-0.3s0.2-0.3,0.3-0.4
		c0.1-0.1,0.3-0.2,0.4-0.2c0.2-0.5,0.6-0.9,1-1.1s0.8-0.6,1-1c0.3-0.1,0.5-0.2,0.7-0.3c0.2-0.1,0.4-0.3,0.6-0.4
		c0.2-0.2,0.4-0.3,0.6-0.5s0.4-0.3,0.7-0.3v-0.5c0.6-0.3,1-0.6,1.3-0.9c0.3-0.3,0.6-0.8,1-1.2c0.3,0,0.5,0,0.7,0
		c0.2,0,0.4,0,0.8-0.1c0.3-0.5,0.5-0.8,0.7-1c0.2-0.2,0.5-0.5,1-0.7c0.4,0.2,0.8,0.3,1.3,0.4c0.5,0.1,0.9,0.3,1.2,0.6
		c0,0.3,0.1,0.6,0.3,0.8c0.2,0.2,0.3,0.3,0.5,0.5s0.4,0.3,0.6,0.5c0.2,0.2,0.3,0.4,0.4,0.7c0.1,0,0.2,0,0.3,0c0-0.1,0.1-0.1,0.3,0
		c0.1,0.5,0.2,0.8,0.3,0.9c0.1,0.1,0.3,0.4,0.4,0.9c-0.2,0.3-0.3,0.7-0.4,1c-0.1,0.3-0.3,0.6-0.6,0.8c0,0.2,0,0.4,0.2,0.4
		c0.2,0,0.3,0.1,0.3,0.3c0,0.3,0,0.5-0.1,0.6c0.8,1.3,1.5,2.6,2.1,4C205.8,37.8,206.5,39.2,207.3,40.4z M201.2,45.1
		c0.1-0.4,0.3-0.7,0.5-0.9c0.2-0.2,0.3-0.6,0.4-1c-0.2-0.3-0.3-0.5-0.3-0.6c0-0.1,0-0.4,0-0.7c-0.7-1-1.3-2.1-1.9-3.2
		c-0.5-1.2-1.1-2.2-1.8-3.2c-0.1,0.1-0.2,0.3-0.3,0.4c-0.2,0.1-0.3,0.1-0.5-0.1c-0.1,0.3-0.2,0.4-0.3,0.6c-0.2,0.1-0.3,0.2-0.5,0.1
		c-0.2,0-0.4-0.1-0.6-0.1c-0.2-0.1-0.4-0.2-0.6-0.3c-0.9,0.7-1.9,1.5-2.8,2.2c-0.9,0.7-1.8,1.5-2.5,2.5c-0.1,0.1-0.2,0.1-0.2,0.1
		c0,0-0.1,0-0.3,0.1c-0.3,0.6-0.6,1.2-1,1.7c-0.4,0.5-0.7,1-1.1,1.5c-0.4,0.5-0.7,1.1-0.9,1.7c-0.3,0.6-0.4,1.3-0.4,2.1
		c0.6,0.5,1.2,0.7,2,0.8c0.7,0.1,1.5,0.1,2.3,0c0.8-0.1,1.6-0.2,2.3-0.3c0.8-0.1,1.5-0.2,2.1-0.2c1.4-0.3,2.5-0.8,3.5-1.3
		S200.2,45.6,201.2,45.1z"/>
	<path id="XMLID_31_" d="M220.3,46.2c-0.3,0.1-0.5,0.2-0.6,0.5c-0.1,0.3-0.3,0.6-0.4,0.9c-0.1,0.3-0.2,0.6-0.3,0.8
		c-0.1,0.2-0.3,0.4-0.5,0.4c0,0.3-0.1,0.5-0.3,0.7s-0.3,0.4-0.4,0.6c-0.1,0.2-0.2,0.4-0.3,0.7c-0.1,0.2,0,0.5,0.1,0.9
		c-0.3,0.2-0.4,0.5-0.5,0.8c-0.1,0.4-0.1,0.7-0.2,1c-0.1,0.3-0.2,0.6-0.4,0.8c-0.2,0.2-0.6,0.3-1.1,0.3c-0.1,0.1-0.1,0.2,0,0.2
		c0.1,0,0.1,0.1,0.1,0.3c-0.4-0.1-0.6,0-0.8,0.1c-0.2,0.1-0.4,0.2-0.7,0.2c-0.6-0.2-1.1-0.5-1.5-1c-0.4-0.5-0.8-1-1.1-1.6
		c-0.3-0.6-0.6-1.2-0.8-1.8c-0.2-0.6-0.5-1.2-0.7-1.6c0.1-0.4,0.1-0.7,0-1c-0.1-0.3-0.2-0.6-0.3-0.9c1.6-3.4,3.3-7,5.2-10.8
		c1.9-3.8,3.7-7.6,5.4-11.4c0.7,0.3,1.5,0.6,2.2,1c0.7,0.4,1.4,0.8,2,1.3c0.6,0.5,1.1,1,1.5,1.7c0.4,0.6,0.7,1.3,0.8,2.1
		c-0.1,0.2-0.1,0.3-0.2,0.2c-0.1,0-0.2,0-0.2,0.1c0.1,0.2,0.2,0.3,0.2,0.3c0,0.1,0,0.1,0,0.2c0,0.1,0,0.2,0,0.3c0,0.1,0,0.3,0.1,0.5
		c-0.1,0-0.2,0-0.3,0c0,0.1-0.2,0.1-0.3,0c0.1,0.4,0.2,0.7,0.1,0.9c0,0.2-0.1,0.4-0.2,0.6c-0.1,0.2-0.2,0.4-0.2,0.6
		c-0.1,0.2,0,0.5,0,0.8c-0.1,0-0.2,0-0.2,0.1s-0.1,0.1-0.1,0.1c0,0-0.1,0.1-0.1,0.1s-0.1,0.1-0.2,0c0.1,0.7,0.1,1.4,0.1,2.1
		c0,0.7-0.1,1.4-0.1,2.2c0,0.7,0,1.5,0,2.3c0,0.8,0.1,1.6,0.3,2.5c1.2-0.7,2.1-1.6,2.8-2.6c0.7-1.1,1.3-2.3,1.7-3.6
		c0.4-1.3,0.8-2.8,1-4.3c0.2-1.5,0.5-3.1,0.7-4.7c0.3-0.3,0.5-0.7,0.7-1.1c0.2-0.4,0.3-0.9,0.4-1.3c0.1-0.5,0.3-0.9,0.4-1.4
		c0.1-0.5,0.3-0.9,0.5-1.3c0.5,0.1,0.9,0.2,1.2,0.5s0.7,0.5,1,0.8c0.3,0.3,0.6,0.5,0.9,0.8c0.3,0.2,0.7,0.4,1.2,0.5
		c0.4,0.6,0.7,1.1,1.1,1.6c0.3,0.5,0.5,1.1,0.6,1.7c-0.2,0.3-0.3,0.6-0.4,0.9c-0.1,0.3-0.2,0.7-0.3,1c-0.1,0.3-0.2,0.6-0.4,0.9
		c-0.2,0.3-0.4,0.5-0.7,0.7c-0.1,0.8-0.2,1.6-0.4,2.3c-0.1,0.7-0.3,1.4-0.4,2.1s-0.3,1.4-0.4,2.1s-0.1,1.5-0.1,2.4
		c-0.3,0.7-0.5,1.5-0.8,2.4c-0.3,0.8-0.5,1.6-0.7,2.3c-0.5,0.4-0.9,0.9-1.2,1.5s-0.6,1.2-0.9,1.8c-0.1,0.1-0.2,0.2-0.2,0.1
		c0-0.1-0.1-0.1-0.3-0.1c0,0.1,0,0.2,0,0.3c0,0.1-0.1,0.1-0.1,0.2s-0.1,0.1-0.1,0.2c0,0.1,0,0.2,0.1,0.4c-0.5,0.2-0.9,0.5-1.2,0.8
		c-0.4,0.4-0.7,0.7-1.1,1c-0.4,0.3-0.9,0.5-1.5,0.6c-0.6,0.1-1.3,0-2.2-0.3c-1.3-1-2.5-2.1-3.5-3.4S221,47.9,220.3,46.2z"/>
	<path id="XMLID_33_" d="M266.3,31.6c-0.8,0-1.7,0.1-2.6,0.2c-0.9,0.1-1.9,0.2-2.8,0.4c-0.7,0.1-1.3,0.2-1.9,0.2
		c-0.6,0.1-1.1,0.1-1.6,0.1c-0.2,0.7-0.5,1.4-0.7,1.9c-0.2,0.6-0.5,1.1-0.7,1.6c-0.3,0.6-0.5,1.1-0.7,1.7c-0.2,0.6-0.4,1.2-0.6,1.8
		c-0.3,0.5-0.6,1-0.8,1.4c-0.2,0.4-0.4,0.9-0.5,1.5c-0.4,0.5-0.7,1-0.9,1.5s-0.3,1-0.4,1.4l-0.2,0.6c-0.2,0.2-0.3,0.4-0.3,0.5
		c0,0.1-0.1,0.2-0.2,0.3c0,0.4-0.1,0.7-0.3,1.1c-0.1,0.2-0.1,0.3-0.1,0.5c0,0.1,0,0.3,0,0.3c0,0.3-0.1,0.5-0.2,0.6
		c0,0.2,0,0.3,0,0.5c0,0.2-0.1,0.4-0.1,0.5c-0.1,0.4-0.1,0.7-0.1,0.9c0.1,0.1,0.2,0.2,0.3,0.3c0.1,0.1,0.1,0.2,0.2,0.4
		c0.2,0.1,0.3,0.2,0.4,0.2c0.1,0.1,0.3,0.2,0.6,0.3l0.4,0.5c0.2,0.9,0,1.7-0.4,2.2c-0.5,0.6-1.3,0.9-2.5,0.9h-0.6
		c-0.2-0.2-0.3-0.3-0.3-0.4c-0.3-0.1-0.5-0.2-0.6-0.2c-0.2-0.1-0.3-0.2-0.4-0.4c-0.4-0.2-0.8-0.4-1-0.5l-0.4-0.2c0-0.4,0-0.6,0-0.6
		c-0.2-0.3-0.4-0.6-0.5-1c-0.1-0.4-0.2-0.7-0.3-1.1c-0.1-0.3-0.1-0.6-0.2-0.8c-0.1-0.3-0.2-0.5-0.3-0.7c-0.1-1.9,0.1-3.5,0.5-4.8
		c0.4-1.3,0.9-2.6,1.3-3.8c0.3-0.7,0.5-1.3,0.8-2c0.3-0.7,0.5-1.4,0.7-2.1l0.4-0.5c0.2-0.5,0.4-1,0.6-1.3s0.3-0.7,0.5-1
		c0.1-0.2,0.2-0.4,0.3-0.7c0.1-0.2,0.2-0.4,0.2-0.6c-0.2,0-0.4,0-0.5,0c-0.2,0-0.3,0-0.5,0.1c-0.2,0-0.4,0.1-0.5,0.1
		c-0.2,0-0.3,0-0.5,0c-0.2,0-0.4,0-0.5,0c-0.4,0.2-0.7,0.2-1.2,0.2h-0.5c-0.1,0-0.2,0-0.3,0c-0.1,0-0.2,0-0.2,0
		c-0.3,0-0.6,0-0.8,0.1c-0.4,0-0.8,0-1.1,0h-0.5c-0.1,0-0.1,0-0.2,0c-0.1,0-0.2,0-0.2,0c-0.2,0-0.5,0-0.7-0.1
		c-0.3,0-0.5-0.2-0.8-0.3c-0.4-0.5-0.7-0.8-0.8-0.8l-0.4-0.6c0-0.2-0.1-0.4-0.1-0.6c-0.1-0.2-0.1-0.4-0.2-0.6
		c-0.1-0.3-0.3-0.7-0.4-1c-0.1-0.4-0.2-0.8-0.2-1.3c0-0.3,0.1-0.5,0.2-0.6c0.1-0.1,0.2-0.2,0.2-0.3l0.1-0.7l0.6,0h1.4
		c1,0,2.1,0,3.2-0.1c1.1-0.1,2.2-0.2,3.3-0.3c0.7-0.1,1.3-0.1,2-0.2c0.7-0.1,1.4-0.1,2.1-0.2c0.1-0.3,0.3-0.6,0.4-0.8l0.5-0.2
		c0.6,0,1,0,1.2,0.2c0.2,0.2,0.4,0.4,0.6,0.5c0.7-0.1,1.4-0.1,2.2-0.2c0.7-0.1,1.5-0.2,2.2-0.3c1.1-0.2,2.2-0.3,3.3-0.4
		c1.1-0.1,2.2-0.2,3.2-0.2c0.5,0,0.9,0,1.3,0c0.4,0,0.8,0.1,1.2,0.1l0.5,0.3c0.1,0.2,0.2,0.4,0.4,0.5c0.2,0.2,0.4,0.3,0.6,0.5
		c0.4,0.4,0.8,0.8,1.2,1.3s0.5,1.2,0.4,2.1c-0.3,0.4-0.5,0.6-0.6,0.7l-0.4,0.6l-0.5,0c-0.2,0-0.4,0-0.5,0.1c-0.2,0-0.3,0.1-0.5,0.2
		c-0.1,0.1-0.3,0.1-0.4,0.2c-0.1,0-0.3,0.1-0.4,0.1c-0.3,0-0.5,0-0.7,0C266.7,31.6,266.5,31.6,266.3,31.6z"/>
	<path id="XMLID_35_" d="M289.8,27.6c0,0.2,0,0.4,0,0.5c0,0.1,0,0.2,0,0.3c0,0.1,0,0.2,0,0.3c0,0.1,0,0.3,0.1,0.5
		c-0.7,1.1-1.5,1.9-2.4,2.3c-0.9,0.4-1.9,0.7-2.9,0.9c-1,0.2-2.1,0.4-3.2,0.6c-1.1,0.2-2.2,0.6-3.2,1.3c-0.4-0.2-0.8-0.2-1.1,0
		c-0.3,0.2-0.8,0.2-1.5,0.1c-0.2,0.2-0.4,0.3-0.7,0.4c-0.3,0.1-0.6,0.2-0.9,0.3c0.1,0.3,0.2,0.6,0.2,0.9c0,0.3,0,0.6,0.1,0.8
		c1.1,0.1,2.4,0.1,3.8,0c1.4-0.1,2.7-0.2,4.1-0.2c0,0.2,0,0.3,0,0.3c-0.1,0-0.1,0.1,0,0.3c0.2,0.2,0.5,0.4,0.7,0.6
		c0.2,0.2,0.5,0.5,0.7,0.7c0.2,0.2,0.5,0.4,0.7,0.6s0.5,0.2,0.9,0.2c0.1,0.3,0.2,0.5,0.3,0.9c0,0.3,0,0.6-0.1,1
		c-0.5,0.4-1,0.7-1.6,1.1c-0.5,0.4-1.1,0.7-1.6,1c-0.6,0.3-1.2,0.5-1.8,0.7c-0.6,0.2-1.3,0.3-2.1,0.2c-0.2,0-0.3,0-0.4,0
		c-0.1,0-0.2,0-0.3-0.1c-0.3,0.2-0.6,0.2-1.1,0.1c-0.5-0.1-0.8,0-1.1,0.1c-0.4-0.2-0.8-0.2-1.3-0.2c-0.5,0-1,0-1.3-0.2
		c-0.5,0.7-1,1.4-1.4,2.2c-0.4,0.8-0.8,1.6-1.1,2.5c1.1,0.2,2,0.2,2.8,0.2c0.7,0,1.4-0.1,2.1-0.2c0.7-0.1,1.3-0.2,2-0.2
		c0.7-0.1,1.5-0.1,2.6-0.1c0.7-0.4,1.4-0.6,2.3-0.7c0.9-0.1,1.7-0.3,2.5-0.6c0.3,0.1,0.5,0.3,0.7,0.5s0.4,0.5,0.6,0.7
		c0.2,0.2,0.4,0.4,0.6,0.6c0.2,0.2,0.4,0.2,0.7,0.2c0.1,0.1,0.2,0.3,0.3,0.5c0,0.2,0.1,0.4,0.1,0.5c0,0.2,0.1,0.3,0.2,0.4
		c0.1,0.1,0.2,0.2,0.4,0.1c-0.5,1.1-1,1.9-1.7,2.5c-0.6,0.6-1.4,1-2.2,1.3c-0.8,0.3-1.7,0.5-2.7,0.7c-1,0.2-2.1,0.4-3.3,0.6
		c-0.3,0.1-0.5,0.1-0.7,0c-0.2-0.1-0.4-0.1-0.7-0.1c-0.7,0.2-1.6,0.3-2.7,0.4c-1,0.1-2.1,0.2-3.2,0.1c-1.1,0-2.1-0.2-3.1-0.4
		s-1.8-0.7-2.4-1.3c-0.3-0.2-0.4-0.5-0.5-0.8c-0.1-0.3-0.3-0.5-0.7-0.7c0-0.4-0.1-0.9-0.2-1.4c-0.1-0.5-0.2-1.1-0.3-1.6
		c-0.1-0.6-0.2-1.1-0.2-1.7c0-0.6,0-1.1,0.1-1.5c0.1-0.5,0.3-0.9,0.6-1.3c0.3-0.4,0.4-0.8,0.3-1.3c0.2,0,0.3-0.1,0.3-0.3
		c0-0.1,0.2-0.2,0.4-0.2c0.2-0.6,0.4-1.1,0.6-1.7c0.2-0.5,0.5-1,0.7-1.5s0.5-1,0.7-1.5c0.2-0.5,0.5-1.1,0.7-1.7
		c-0.5-0.4-0.8-0.9-1-1.4c-0.2-0.5-0.4-1-0.5-1.5c-0.1-0.5-0.2-1-0.2-1.6c-0.1-0.5-0.2-1.1-0.3-1.6c0.3-0.5,0.7-0.9,1.2-1.2
		c0.5-0.3,1-0.6,1.5-0.8c0.6-0.2,1.2-0.4,1.8-0.5c0.7-0.1,1.3-0.3,2.1-0.4c1.3-0.4,2.5-0.7,3.5-1c1-0.2,2-0.4,3-0.6
		c1-0.1,2-0.3,3.1-0.4c1.1-0.1,2.3-0.3,3.7-0.6c0.3,0.3,0.6,0.4,0.8,0.4c0.1-0.3,0.3-0.4,0.5-0.3c0.2,0.1,0.3,0,0.2-0.3
		c0.3,0.6,0.7,1,1.2,1.4C288.6,27,289.1,27.3,289.8,27.6z"/>
	<path id="XMLID_37_" d="M298.6,46.2c-0.3,0.1-0.5,0.2-0.6,0.5c-0.1,0.3-0.3,0.6-0.4,0.9c-0.1,0.3-0.2,0.6-0.3,0.8
		c-0.1,0.2-0.3,0.4-0.5,0.4c0,0.3-0.1,0.5-0.3,0.7s-0.3,0.4-0.4,0.6c-0.1,0.2-0.2,0.4-0.3,0.7c-0.1,0.2,0,0.5,0.1,0.9
		c-0.3,0.2-0.4,0.5-0.5,0.8c-0.1,0.4-0.1,0.7-0.2,1c-0.1,0.3-0.2,0.6-0.4,0.8c-0.2,0.2-0.6,0.3-1.1,0.3c-0.1,0.1-0.1,0.2,0,0.2
		c0.1,0,0.1,0.1,0.1,0.3c-0.4-0.1-0.6,0-0.8,0.1c-0.2,0.1-0.4,0.2-0.7,0.2c-0.6-0.2-1.1-0.5-1.5-1c-0.4-0.5-0.8-1-1.1-1.6
		c-0.3-0.6-0.6-1.2-0.8-1.8c-0.2-0.6-0.5-1.2-0.7-1.6c0.1-0.4,0.1-0.7,0-1c-0.1-0.3-0.2-0.6-0.3-0.9c1.6-3.4,3.3-7,5.2-10.8
		c1.9-3.8,3.7-7.6,5.4-11.4c0.7,0.3,1.5,0.6,2.2,1c0.7,0.4,1.4,0.8,2,1.3c0.6,0.5,1.1,1,1.5,1.7c0.4,0.6,0.7,1.3,0.8,2.1
		c-0.1,0.2-0.1,0.3-0.2,0.2c-0.1,0-0.2,0-0.2,0.1c0.1,0.2,0.2,0.3,0.2,0.3c0,0.1,0,0.1,0,0.2c0,0.1,0,0.2,0,0.3c0,0.1,0,0.3,0.1,0.5
		c-0.1,0-0.2,0-0.3,0c0,0.1-0.2,0.1-0.3,0c0.1,0.4,0.2,0.7,0.1,0.9c0,0.2-0.1,0.4-0.2,0.6c-0.1,0.2-0.2,0.4-0.2,0.6
		c-0.1,0.2,0,0.5,0,0.8c-0.1,0-0.2,0-0.2,0.1s-0.1,0.1-0.1,0.1c0,0-0.1,0.1-0.1,0.1s-0.1,0.1-0.2,0c0.1,0.7,0.1,1.4,0.1,2.1
		c0,0.7-0.1,1.4-0.1,2.2c0,0.7,0,1.5,0,2.3c0,0.8,0.1,1.6,0.3,2.5c1.2-0.7,2.1-1.6,2.8-2.6c0.7-1.1,1.3-2.3,1.7-3.6
		c0.4-1.3,0.8-2.8,1-4.3c0.2-1.5,0.5-3.1,0.7-4.7c0.3-0.3,0.5-0.7,0.7-1.1c0.2-0.4,0.3-0.9,0.4-1.3c0.1-0.5,0.3-0.9,0.4-1.4
		c0.1-0.5,0.3-0.9,0.5-1.3c0.5,0.1,0.9,0.2,1.2,0.5s0.7,0.5,1,0.8c0.3,0.3,0.6,0.5,0.9,0.8c0.3,0.2,0.7,0.4,1.2,0.5
		c0.4,0.6,0.7,1.1,1.1,1.6c0.3,0.5,0.5,1.1,0.6,1.7c-0.2,0.3-0.3,0.6-0.4,0.9c-0.1,0.3-0.2,0.7-0.3,1c-0.1,0.3-0.2,0.6-0.4,0.9
		c-0.2,0.3-0.4,0.5-0.7,0.7c-0.1,0.8-0.2,1.6-0.4,2.3c-0.1,0.7-0.3,1.4-0.4,2.1s-0.3,1.4-0.4,2.1s-0.1,1.5-0.1,2.4
		c-0.3,0.7-0.5,1.5-0.8,2.4c-0.3,0.8-0.5,1.6-0.7,2.3c-0.5,0.4-0.9,0.9-1.2,1.5s-0.6,1.2-0.9,1.8c-0.1,0.1-0.2,0.2-0.2,0.1
		c0-0.1-0.1-0.1-0.3-0.1c0,0.1,0,0.2,0,0.3c0,0.1-0.1,0.1-0.1,0.2s-0.1,0.1-0.1,0.2c0,0.1,0,0.2,0.1,0.4c-0.5,0.2-0.9,0.5-1.2,0.8
		c-0.4,0.4-0.7,0.7-1.1,1c-0.4,0.3-0.9,0.5-1.5,0.6c-0.6,0.1-1.3,0-2.2-0.3c-1.3-1-2.5-2.1-3.5-3.4S299.2,47.9,298.6,46.2z"/>
	<path id="XMLID_39_" d="M340.9,41.9c0,0.2-0.1,0.3-0.1,0.4c0,0.1-0.1,0.2-0.1,0.3c0,0.1,0,0.2,0,0.4s0,0.3,0,0.6
		c-1,1.7-2.2,3.2-3.7,4.3c-1.5,1.2-3.1,2.2-4.9,3.1c-1.8,0.9-3.6,1.7-5.5,2.4c-1.9,0.7-3.8,1.5-5.6,2.4c-0.8-0.2-1.4-0.5-1.8-1
		c-0.4-0.5-0.7-1-0.9-1.6c-0.2-0.6-0.4-1.3-0.4-2c-0.1-0.7-0.2-1.5-0.2-2.3c0.1-0.4,0.2-0.7,0.4-0.9c0.2-0.2,0.3-0.6,0.3-1
		c0.3-0.8,0.5-1.7,0.8-2.5c0.3-0.8,0.4-1.6,0.5-2.5c0.1-0.3,0.3-0.4,0.5-0.5c0.2-1.6,0.2-3.1,0-4.8s-0.4-3.1-0.8-4.5
		c0-0.3,0.1-0.6,0.1-0.7s0-0.3,0-0.3c0-0.3,0.1-0.4,0.3-0.4c0.2,0,0.4,0,0.7,0c0-0.5-0.1-1-0.3-1.5c-0.2-0.5-0.4-1-0.5-1.7
		c0.2-0.5,0.4-1,0.4-1.4c0.1-0.5,0.2-0.9,0.4-1.2c1.8,0.6,3.4,1.2,5.1,2s3.2,1.4,4.8,1.7c1.2,0.8,2.4,1.7,3.6,2.5
		c1.2,0.8,2.4,1.7,3.4,2.7c1,1,1.9,2.1,2.5,3.4S340.8,40.1,340.9,41.9z M329.3,44.6c0.7-0.3,1.4-0.5,2-0.8c0.7-0.3,1.3-0.6,1.9-1
		c0.6-0.4,1.1-0.8,1.5-1.3c0.5-0.5,0.8-1.1,1.1-1.8c-0.2-0.4-0.5-0.7-0.8-1c-0.3-0.3-0.7-0.6-1-0.9c-0.3-0.3-0.6-0.6-1-0.9
		c-0.3-0.3-0.6-0.7-0.8-1.1c-0.4-0.1-0.8-0.2-1.1-0.4c-0.3-0.2-0.6-0.4-1-0.5c-0.3-0.2-0.6-0.3-1-0.5c-0.3-0.2-0.7-0.3-1.2-0.3
		c-0.7-0.4-1.4-0.6-1.9-0.8c-0.6-0.2-1-0.4-1.3-0.6c-0.2,0-0.4,0-0.5,0.1c0.3,1.2,0.6,2.4,0.7,3.5c0.2,1.1,0.3,2.2,0.3,3.3
		c0,1.1,0,2.2-0.2,3.3c-0.1,1.1-0.3,2.4-0.5,3.7c0.3,0,0.6-0.1,0.9-0.2c0.3-0.1,0.6-0.2,0.8-0.4c0.3-0.1,0.6-0.3,0.9-0.4
		c0.3-0.1,0.7-0.2,1.1-0.2c0.1-0.2,0.2-0.4,0.4-0.5C329,44.9,329.1,44.7,329.3,44.6z"/>
</g>
</svg>
